<mxfile host="app.diagrams.net" modified="2021-11-07T16:42:26.086Z" agent="5.0 (Macintosh; Intel Mac OS X 10_15_7) AppleWebKit/537.36 (KHTML, like Gecko) Chrome/95.0.4638.69 Safari/537.36" etag="bFpzfPLmMrOegOfpc3H0" version="15.7.0" type="github">
  <diagram id="sWyN42TVtSUv-0bB36Ei" name="第 1 页">
    <mxGraphModel dx="981" dy="614" grid="1" gridSize="10" guides="1" tooltips="1" connect="1" arrows="1" fold="1" page="1" pageScale="1" pageWidth="827" pageHeight="1169" math="0" shadow="0">
      <root>
        <mxCell id="0" />
        <mxCell id="1" parent="0" />
        <mxCell id="lWRJNPDFnJKkOh0cPxcQ-5" value="" style="endArrow=classic;html=1;rounded=0;strokeWidth=2;" edge="1" parent="1">
          <mxGeometry width="50" height="50" relative="1" as="geometry">
            <mxPoint x="240" y="200" as="sourcePoint" />
            <mxPoint x="240" y="640" as="targetPoint" />
          </mxGeometry>
        </mxCell>
        <mxCell id="lWRJNPDFnJKkOh0cPxcQ-6" value="&lt;font style=&quot;font-size: 18px&quot;&gt;Time&lt;/font&gt;" style="text;html=1;align=center;verticalAlign=middle;resizable=0;points=[];autosize=1;strokeColor=none;fillColor=none;" vertex="1" parent="1">
          <mxGeometry x="217" y="170" width="50" height="20" as="geometry" />
        </mxCell>
        <mxCell id="lWRJNPDFnJKkOh0cPxcQ-7" value="此时主从通讯正常" style="rounded=0;whiteSpace=wrap;html=1;fontSize=18;fillColor=#d5e8d4;strokeColor=#82b366;" vertex="1" parent="1">
          <mxGeometry x="280" y="200" width="240" height="180" as="geometry" />
        </mxCell>
        <mxCell id="lWRJNPDFnJKkOh0cPxcQ-8" value="此时网络波动要丢失数据" style="rounded=0;whiteSpace=wrap;html=1;fontSize=18;fillColor=#f8cecc;strokeColor=#b85450;dashed=1;strokeWidth=2;" vertex="1" parent="1">
          <mxGeometry x="280" y="380" width="240" height="120" as="geometry" />
        </mxCell>
        <mxCell id="lWRJNPDFnJKkOh0cPxcQ-9" value="主从恢复连接" style="rounded=0;whiteSpace=wrap;html=1;fontSize=18;strokeWidth=2;fillColor=#dae8fc;strokeColor=#6c8ebf;" vertex="1" parent="1">
          <mxGeometry x="280" y="500" width="240" height="120" as="geometry" />
        </mxCell>
        <mxCell id="lWRJNPDFnJKkOh0cPxcQ-12" value="时间流" style="text;html=1;align=center;verticalAlign=middle;resizable=0;points=[];autosize=1;strokeColor=none;fillColor=none;fontSize=18;" vertex="1" parent="1">
          <mxGeometry x="160" y="386" width="70" height="30" as="geometry" />
        </mxCell>
        <mxCell id="lWRJNPDFnJKkOh0cPxcQ-13" value="" style="shape=curlyBracket;whiteSpace=wrap;html=1;rounded=1;flipH=1;fontSize=18;strokeWidth=2;" vertex="1" parent="1">
          <mxGeometry x="540" y="379" width="20" height="120" as="geometry" />
        </mxCell>
        <mxCell id="lWRJNPDFnJKkOh0cPxcQ-14" value="从节点没有同步" style="text;html=1;align=center;verticalAlign=middle;resizable=0;points=[];autosize=1;strokeColor=none;fillColor=none;fontSize=18;" vertex="1" parent="1">
          <mxGeometry x="580" y="425" width="140" height="30" as="geometry" />
        </mxCell>
      </root>
    </mxGraphModel>
  </diagram>
</mxfile>
